:SAMPLES-PER-SECOND 30
:FULLY-SPECIFIED
:DEGREES
869
root  12.7013 40.6727 8.91879 144.848 86.35 147.412
RightUpLeg  -2.05705 -11.222 -8.39914
RightLeg  8.9283 -11.8014 2.2015
RightFoot  -0.622289 -0.032503 0.302153
RightToes  0.000481921 0.542163 -0.142578
Spine  10.7015 -5.58767 -14.198
Spine1  -1.47954 -9.66326 16.9515
HEad  15.6545 13.5453 -2.50645
LeftShoulder1  7.05129 -14.6831 -32.7867
LeftArm  -19.1884 -35.1747 -27.239
LeftForeArm  37.4063 -62.1876 -18.938
LeftHand  -0.25398 0.0180481 5.50724
RightShoulder  3.50399 6.89674 27.6752
RightArm  8.15816 -0.434207 51.3188
RightForeArm  162.078 59.6797 162.307
RightHand  -0.467641 0.516381 -9.27072
LeftUpLeg  -1.0438 7.33982 6.11023
LeftLeg  4.69854 12.618 -3.27488
LeftFoot  1.54994 0.311012 -2.83583
LeftToes  1.06247e-005 4.65869e-005 -8.65511e-006
870
root  12.4154 40.6007 9.1229 175.645 80.4675 178.077
RightUpLeg  -1.79122 -12.4431 -8.44101
RightLeg  9.96115 -16.6811 2.07543
RightFoot  -1.30383 -0.0554287 0.528932
RightToes  0.000481921 0.542163 -0.142578
Spine  14.0468 -7.27471 -19.9933
Spine1  -3.34177 -13.215 24.1568
HEad  15.7475 12.9894 -1.80322
LeftShoulder1  6.19989 -16.3607 -24.9615
LeftArm  -21.9645 -52.535 -25.3409
LeftForeArm  17.624 -21.013 -3.05175
LeftHand  -0.25398 0.0180481 5.50724
RightShoulder  3.2858 6.37357 27.2256
RightArm  8.53834 -1.9972 50.1256
RightForeArm  162.603 59.3402 162.579
RightHand  -0.440518 0.536405 -8.70556
LeftUpLeg  -3.7496 7.51303 5.8712
LeftLeg  6.33008 6.46893 -2.62853
LeftFoot  2.0301 0.31249 -2.77073
LeftToes  1.06247e-005 4.65869e-005 -8.65511e-006
871
root  12.2363 40.5627 9.23011 176.62 77.2865 178.23
RightUpLeg  -2.6839 -13.4091 -8.39412
RightLeg  10.7549 -18.9557 1.8837
RightFoot  -1.55502 -0.0606558 0.584116
RightToes  0.000481921 0.542163 -0.142578
Spine  17.3553 -8.34123 -24.3226
Spine1  -6.44693 -15.6181 30.8822
HEad  15.4245 14.7353 -2.81392
LeftShoulder1  4.4422 -15.6674 -16.3085
LeftArm  -28.0974 -59.0273 -23.1712
LeftForeArm  16.2136 1.20606 -3.02505
LeftHand  -0.25398 0.0180481 5.50724
RightShoulder  3.02071 6.08835 25.3917
RightArm  10.0839 -3.17366 50.0143
RightForeArm  164.819 59.7507 162.508
RightHand  -0.372853 0.334357 -7.61016
LeftUpLeg  -5.81324 7.13678 5.43547
LeftLeg  6.70049 3.90888 -2.46948
LeftFoot  2.55536 0.323947 -2.78588
LeftToes  1.06247e-005 4.65869e-005 -8.65511e-006
872
root  12.2493 40.6154 9.19571 171.735 79.3745 172.189
RightUpLeg  -4.21895 -13.2155 -8.35857
RightLeg  10.339 -17.2418 1.96375
RightFoot  -1.07239 -0.0483642 0.457882
RightToes  0.000481921 0.542163 -0.142578
Spine  18.1678 -8.2612 -25.4871
Spine1  -8.93405 -15.4158 33.4295
HEad  15 17.7948 -5.25927
LeftShoulder1  3.03804 -12.3811 -12.1263
LeftArm  -25.0856 -54.5811 -25.8238
LeftForeArm  18.1129 -6.99687 -3.49333
LeftHand  -0.25398 0.0180481 5.50724
RightShoulder  2.87358 6.07822 23.8166
RightArm  11.8122 -5.2129 50.2584
RightForeArm  167.454 59.9902 162.588
RightHand  -0.30507 0.139774 -6.44112
LeftUpLeg  -5.64828 6.41339 5.30558
LeftLeg  4.821 6.91262 -3.1109
LeftFoot  3.1327 0.333061 -2.77248
LeftToes  1.06247e-005 4.65869e-005 -8.65511e-006
873
root  12.4118 40.7127 9.05202 -175.202 85.6923 -175.356
RightUpLeg  -5.26444 -11.8172 -8.27473
RightLeg  8.86639 -12.8171 2.3353
RightFoot  -0.0720702 -0.0270737 0.269557
RightToes  0.000481921 0.542163 -0.142578
Spine  15.9686 -6.81505 -22.5629
Spine1  -8.68513 -12.7098 29.3652
HEad  14.4229 19.1964 -7.06617
LeftShoulder1  2.88421 -10.0327 -14.3872
LeftArm  -22.6643 -43.8641 -29.2302
LeftForeArm  25.9034 -37.0069 -6.96254
LeftHand  -0.25398 0.0180481 5.50724
RightShoulder  2.95385 6.17774 24.3557
RightArm  11.8869 -8.84735 49.6833
RightForeArm  167.728 59.184 163.133
RightHand  -0.295057 0.168733 -6.19282
LeftUpLeg  -3.28344 6.31972 5.42805
LeftLeg  1.69908 12.942 -4.19575
LeftFoot  3.44971 0.355134 -2.89788
LeftToes  1.06247e-005 4.65869e-005 -8.65511e-006
874
root  12.6102 40.7702 8.86416 66.2382 86.9423 66.178
RightUpLeg  -5.53064 -10.323 -7.94648
RightLeg  7.40761 -8.08969 2.67437
RightFoot  0.948049 -0.00058059 0.0659127
RightToes  0.000481921 0.542163 -0.142578
Spine  13.014 -4.95776 -16.3777
Spine1  -6.42087 -9.20171 20.8273
HEad  13.7863 18.5718 -6.99317
LeftShoulder1  3.55675 -10.4109 -18.98
LeftArm  -23.4909 -30.5599 -30.1421
LeftForeArm  45.6341 -69.0384 -28.4577
LeftHand  -0.25398 0.0180481 5.50724
RightShoulder  3.28738 6.49267 26.8316
RightArm  10.5289 -12.3671 48.2507
RightForeArm  164.806 58.1617 163.516
RightHand  -0.346833 0.265315 -7.1618
LeftUpLeg  -0.696392 6.84426 5.66216
LeftLeg  -0.299047 18.4634 -4.98893
LeftFoot  3.11759 0.395189 -3.26613
LeftToes  1.06247e-005 4.65869e-005 -8.65511e-006
875
root  12.7885 40.7911 8.68989 9.30682 83.1452 9.26367
RightUpLeg  -5.74468 -9.24113 -7.40189
RightLeg  6.35379 -4.50947 2.80571
RightFoot  1.81482 0.0281749 -0.137355
RightToes  0.000481921 0.542163 -0.142578
Spine  11.2005 -3.76874 -10.8374
Spine1  -4.46622 -6.69968 13.8333
HEad  12.8702 18.413 -6.54186
LeftShoulder1  4.35106 -11.0559 -23.6484
LeftArm  -22.2385 -14.919 -30.1557
LeftForeArm  140.794 -77.6855 -129.393
LeftHand  -0.25398 0.0180481 5.50724
RightShoulder  3.6356 6.96828 28.7317
RightArm  9.90212 -13.258 47.0303
RightForeArm  162.529 58.3974 163.168
RightHand  -0.394677 0.311882 -8.09405
LeftUpLeg  0.536707 7.28988 5.97336
LeftLeg  -0.447361 22.5597 -5.27377
LeftFoot  2.35041 0.408007 -3.5162
LeftToes  1.06247e-005 4.65869e-005 -8.65511e-006
876
root  12.9627 40.7863 8.54667 6.71643 79.3742 6.37537
RightUpLeg  -6.38017 -8.49356 -6.84686
RightLeg  5.89934 -1.58475 2.74871
RightFoot  2.36237 0.0426364 -0.220907
RightToes  0.000481921 0.542163 -0.142578
Spine  10.7353 -3.30681 -7.93526
Spine1  -4.05725 -5.53674 10.5044
HEad  11.6248 19.8109 -6.68426
LeftShoulder1  4.9045 -10.2686 -29.5909
LeftArm  -20.9149 3.2236 -29.1486
LeftForeArm  172.703 -58.3234 -165.111
LeftHand  -0.25398 0.0180481 5.50724
RightShoulder  3.77233 7.21726 29.2084
RightArm  11.0451 -11.7097 46.3435
RightForeArm  164.334 59.5029 162.629
RightHand  -0.379659 0.320644 -7.77274
LeftUpLeg  0.697511 7.85465 6.25021
LeftLeg  0.563536 25.6948 -5.25895
LeftFoot  1.3988 0.375828 -3.44121
LeftToes  1.06247e-005 4.65869e-005 -8.65511e-006
877
root  13.1392 40.7689 8.44669 5.06903 76.1857 4.46753
RightUpLeg  -7.03856 -7.98922 -6.43674
RightLeg  5.87678 1.01218 2.66177
RightFoot  2.55623 0.0399317 -0.183296
RightToes  0.000481921 0.542163 -0.142578
Spine  10.645 -2.79923 -6.29559
Spine1  -4.14514 -4.5528 8.25342
HEad  10.4526 20.5456 -6.28219
LeftShoulder1  5.38488 -9.20148 -36.2445
LeftArm  -19.8785 19.538 -28.7276
LeftForeArm  176.176 -45.3154 -170.342
LeftHand  -0.25398 0.0180481 5.50724
RightShoulder  3.58147 6.70689 29.0928
RightArm  12.2516 -10.3006 46.4032
RightForeArm  167.79 59.7292 162.79
RightHand  -0.351004 0.441862 -7.05585
LeftUpLeg  0.834971 8.40696 6.45729
LeftLeg  1.51827 28.2686 -5.25987
LeftFoot  0.570998 0.340965 -3.30275
LeftToes  1.06247e-005 4.65869e-005 -8.65511e-006
878
root  13.2838 40.7578 8.41234 4.32233 74.6762 3.62158
RightUpLeg  -7.21491 -7.74494 -6.21798
RightLeg  5.8864 2.2391 2.62913
RightFoot  2.50078 0.0328801 -0.125745
RightToes  0.000481921 0.542163 -0.142578
Spine  10.0533 -2.03171 -4.5086
Spine1  -3.67418 -3.19876 5.27266
HEad  10.1797 18.7187 -4.27413
LeftShoulder1  5.87967 -9.0274 -40.6024
LeftArm  -20.4275 29.7267 -31.8031
LeftForeArm  176.792 -41.633 -171.328
LeftHand  -0.25398 0.0180481 5.50724
RightShoulder  3.20886 5.57309 29.3776
RightArm  11.774 -11.4296 46.6494
RightForeArm  168.572 58.1997 163.807
RightHand  -0.36289 0.440241 -7.29531
LeftUpLeg  1.00695 8.73916 6.63939
LeftLeg  2.0699 29.3689 -5.21578
LeftFoot  0.0662994 0.335326 -3.36198
LeftToes  1.06247e-005 4.65869e-005 -8.65511e-006
879
root  13.3692 40.7617 8.45654 4.26593 75.8908 3.48505
RightUpLeg  -6.82763 -7.89609 -6.28682
RightLeg  5.77759 1.21869 2.70882
RightFoot  2.224 0.0264303 -0.094421
RightToes  0.000481921 0.542163 -0.142578
Spine  9.23272 -1.55329 -3.36876
Spine1  -3.15863 -2.33701 3.42254
HEad  11.0102 15.6232 -2.07676
LeftShoulder1  6.15315 -9.23612 -41.9054
LeftArm  -22.4244 33.4686 -36.2894
LeftForeArm  176.017 -44.2686 -170.42
LeftHand  -0.25398 0.0180481 5.50724
RightShoulder  2.92097 4.58339 30.1443
RightArm  10.0317 -14.9979 46.4955
RightForeArm  167.184 55.8795 165.011
RightHand  -0.413715 0.473467 -8.25708
LeftUpLeg  0.725195 8.73405 6.76378
LeftLeg  2.40669 28.172 -5.00749
LeftFoot  -0.0201646 0.342265 -3.4521
LeftToes  1.06247e-005 4.65869e-005 -8.65511e-006
880
root  13.3947 40.7709 8.57522 5.03192 79.4678 4.24011
RightUpLeg  -5.99383 -8.48707 -6.67579
RightLeg  5.75276 -1.64712 2.9431
RightFoot  1.65806 0.0187735 -0.0653136
RightToes  0.000481921 0.542163 -0.142578
Spine  8.99154 -1.86368 -4.14445
Spine1  -3.29079 -2.86717 4.67613
HEad  12.146 13.6352 -1.60193
LeftShoulder1  6.16411 -9.23156 -41.9983
LeftArm  -22.872 32.5956 -37.8712
LeftForeArm  175.691 -48.4306 -168.972
LeftHand  -0.25398 0.0180481 5.50724
RightShoulder  2.85252 4.20936 31.0129
RightArm  8.36378 -19.1301 45.9043
RightForeArm  167.187 54.1586 165.894
RightHand  -0.492275 1.07447 -8.97638
LeftUpLeg  0.0117203 8.43139 6.76968
LeftLeg  2.63826 25.0172 -4.6988
LeftFoot  0.289329 0.337925 -3.33659
LeftToes  1.06247e-005 4.65869e-005 -8.65511e-006
881
root  13.3669 40.7704 8.75697 13.5678 84.2899 12.8782
RightUpLeg  -5.00055 -9.27538 -7.17079
RightLeg  6.06621 -5.58487 3.20298
RightFoot  0.816444 0.00825977 -0.0252167
RightToes  0.000481921 0.542163 -0.142578
Spine  9.43319 -2.79856 -6.71645
Spine1  -3.63975 -4.53874 8.40303
HEad  12.3803 12.9657 -2.60105
LeftShoulder1  6.19696 -9.24045 -42.2058
LeftArm  -21.0054 29.2089 -35.9546
LeftForeArm  176.397 -50.7408 -168.123
LeftHand  -0.25398 0.0180481 5.50724
RightShoulder  2.90203 4.22423 31.5908
RightArm  7.16222 -22.5487 45.1367
RightForeArm  169.126 53.3312 166.438
RightHand  -0.561299 1.9545 -9.08204
LeftUpLeg  -0.931711 7.95522 6.687
LeftLeg  2.83997 20.7697 -4.33707
LeftFoot  0.856274 0.329419 -3.13207
LeftToes  1.06247e-005 4.65869e-005 -8.65511e-006
